<?xml version="1.0" encoding="utf-8"?>
<!-- Generator: Adobe Illustrator 23.0.3, SVG Export Plug-In . SVG Version: 6.00 Build 0)  -->
<svg version="1.1" id="Layer_2" xmlns="http://www.w3.org/2000/svg" xmlns:xlink="http://www.w3.org/1999/xlink" x="0px" y="0px"
	 viewBox="0 0 262 262" style="enable-background:new 0 0 262 262;" xml:space="preserve">
<style type="text/css">
	.st0{fill:#21BEE9;}
	.st1{fill:#231804;}
	.st2{fill:#F0551F;}
</style>
<g>
	<rect class="st0" width="262" height="262"/>
	<g>
		<g>
			<g>
				<path class="st1" d="M102.7,128.4c-1.3,0-2.6-0.5-3.6-1.5L75,102.8c-2-2-2-5.3,0-7.3c2-2,5.3-2,7.3,0l24.1,24.1c2,2,2,5.3,0,7.3
					C105.4,127.9,104.1,128.4,102.7,128.4z"/>
			</g>
			<g>
				<path class="st1" d="M78.6,128.4c-1.3,0-2.6-0.5-3.6-1.5c-2-2-2-5.3,0-7.3l24.1-24.1c2-2,5.3-2,7.3,0c2,2,2,5.3,0,7.3
					l-24.1,24.1C81.3,127.9,80,128.4,78.6,128.4z"/>
			</g>
		</g>
		<g>
			<g>
				<path class="st1" d="M183.3,128.4c-1.3,0-2.6-0.5-3.6-1.5l-24.1-24.1c-2-2-2-5.3,0-7.3c2-2,5.3-2,7.3,0l24.1,24.1
					c2,2,2,5.3,0,7.3C186,127.9,184.7,128.4,183.3,128.4z"/>
			</g>
			<g>
				<path class="st1" d="M159.3,128.4c-1.3,0-2.6-0.5-3.6-1.5c-2-2-2-5.3,0-7.3l24.1-24.1c2-2,5.3-2,7.3,0c2,2,2,5.3,0,7.3
					l-24.1,24.1C161.9,127.9,160.6,128.4,159.3,128.4z"/>
			</g>
		</g>
	</g>
	<g>
		<path class="st1" d="M134.3,190.6h-6.5c-11,0-19.9-8.9-19.9-19.9v-6.5c0-11,8.9-19.9,19.9-19.9h6.5c11,0,19.9,8.9,19.9,19.9v6.5
			C154.1,181.7,145.2,190.6,134.3,190.6z"/>
	</g>
	<g>
		<path class="st2" d="M131,166.7c-9.6,0-17.8,3.2-21.8,11.2c2.8,7.5,10.1,12.8,18.6,12.8h6.5c8.5,0,15.7-5.3,18.6-12.8
			C148.8,169.8,140.6,166.7,131,166.7z"/>
	</g>
</g>
</svg>
