<?xml version="1.0" encoding="utf-8"?>
<!-- Generator: Adobe Illustrator 23.0.3, SVG Export Plug-In . SVG Version: 6.00 Build 0)  -->
<svg version="1.1" id="Layer_2" xmlns="http://www.w3.org/2000/svg" xmlns:xlink="http://www.w3.org/1999/xlink" x="0px" y="0px"
	 viewBox="0 0 262 262" style="enable-background:new 0 0 262 262;" xml:space="preserve">
<style type="text/css">
	.st0{fill:#FFA7C0;}
	.st1{fill:#231804;}
	.st2{fill:#FFFFFF;}
	.st3{fill:#F0551F;}
	.st4{fill:#21BEE9;}
</style>
<g>
	<rect class="st0" width="262" height="262"/>
	<g>
		<g>
			<path class="st1" d="M70.2,152.8c-0.5-1.2,5.2,44,60.8,45.6c55.6-1.7,61.3-46.8,60.8-45.6C151.8,162.4,110.2,162.4,70.2,152.8z"
				/>
		</g>
		<g>
			<path class="st2" d="M131,169.5c25.2-0.6,42.1-7.1,53.3-15c-35.2,7.4-71.5,7.4-106.7,0C88.9,162.4,105.8,168.9,131,169.5z"/>
		</g>
		<g>
			<path class="st3" d="M169.9,186.9c-9.7-5.2-23.5-8.5-38.9-8.5c-15.3,0-29.1,3.3-38.9,8.5c9,6.3,21.5,11.1,38.9,11.6
				C148.4,197.9,160.9,193.2,169.9,186.9z"/>
		</g>
	</g>
	<g>
		<g>
			<path class="st4" d="M39.7,130.4L65.8,119l-11.4,26.1c-2.5,5.7-9.1,8.3-14.8,5.8c-5.7-2.5-8.3-9.1-5.8-14.8
				C35,133.5,37.2,131.5,39.7,130.4z"/>
		</g>
		<g>
			<path class="st4" d="M207.6,145.2L196.2,119l26.1,11.4c5.7,2.5,8.3,9.1,5.8,14.8c-2.5,5.7-9.1,8.3-14.8,5.8
				C210.7,149.8,208.7,147.7,207.6,145.2z"/>
		</g>
	</g>
	<g>
		<g>
			<path class="st1" d="M78.6,123.8c-1.8,0-3.5-0.9-4.5-2.6c-1.4-2.5-0.6-5.6,1.9-7l18-10.4L76,93.4c-2.5-1.4-3.3-4.6-1.9-7
				c1.4-2.5,4.6-3.3,7-1.9l25.7,14.8c1.6,0.9,2.6,2.6,2.6,4.5s-1,3.5-2.6,4.5l-25.7,14.8C80.3,123.6,79.5,123.8,78.6,123.8z"/>
		</g>
		<g>
			<path class="st1" d="M183.4,123.8c-0.9,0-1.8-0.2-2.6-0.7l-25.7-14.8c-1.6-0.9-2.6-2.6-2.6-4.5s1-3.5,2.6-4.5l25.7-14.8
				c2.5-1.4,5.6-0.6,7,1.9c1.4,2.5,0.6,5.6-1.9,7l-18,10.4l18,10.4c2.5,1.4,3.3,4.6,1.9,7C186.9,122.9,185.2,123.8,183.4,123.8z"/>
		</g>
	</g>
</g>
</svg>
