<?xml version="1.0" encoding="utf-8"?>
<!-- Generator: Adobe Illustrator 23.0.3, SVG Export Plug-In . SVG Version: 6.00 Build 0)  -->
<svg version="1.1" id="Layer_2" xmlns="http://www.w3.org/2000/svg" xmlns:xlink="http://www.w3.org/1999/xlink" x="0px" y="0px"
	 viewBox="0 0 262 262" style="enable-background:new 0 0 262 262;" xml:space="preserve">
<style type="text/css">
	.st0{fill:#FF7701;}
	.st1{fill:#231804;}
	.st2{fill:#FFFFFF;}
	.st3{fill:#F0551F;}
</style>
<g>
	<rect class="st0" width="262" height="262"/>
	<g>
		<path class="st1" d="M70.2,149.6c-0.5-1.2,5.2,44,60.8,45.6c55.6-1.7,61.3-46.8,60.8-45.6C151.8,159.2,110.2,159.2,70.2,149.6z"/>
	</g>
	<g>
		<path class="st2" d="M131,166.3c25.2-0.6,42.1-7.1,53.3-15c-35.2,7.4-71.5,7.4-106.7,0C88.9,159.2,105.8,165.7,131,166.3z"/>
	</g>
	<g>
		<path class="st3" d="M169.9,183.7c-9.7-5.2-23.5-8.5-38.9-8.5c-15.3,0-29.1,3.3-38.9,8.5c9,6.3,21.5,11.1,38.9,11.6
			C148.4,194.7,160.9,189.9,169.9,183.7z"/>
	</g>
	<g>
		<g>
			<g>
				<path class="st1" d="M102.7,121.1c-2.8,0-5.1-2.3-5.1-5.1v-3c0-5.2-4.2-9.4-9.4-9.4c-5.5,0-9.7,4.2-9.7,9.4v3
					c0,2.8-2.3,5.1-5.1,5.1c-2.8,0-5.1-2.3-5.1-5.1v-3c0-10.9,8.8-19.7,19.7-19.7c11.2,0,20,8.8,20,19.7v3
					C107.8,118.8,105.5,121.1,102.7,121.1z"/>
			</g>
		</g>
		<g>
			<g>
				<path class="st1" d="M188.7,121.1c-2.8,0-5.1-2.3-5.1-5.1v-3c0-5.2-4.2-9.4-9.4-9.4c-5.5,0-9.7,4.2-9.7,9.4v3
					c0,2.8-2.3,5.1-5.1,5.1c-2.8,0-5.1-2.3-5.1-5.1v-3c0-10.9,8.8-19.7,19.7-19.7c11.2,0,20,8.8,20,19.7v3
					C193.9,118.8,191.6,121.1,188.7,121.1z"/>
			</g>
		</g>
	</g>
</g>
</svg>
