<?xml version="1.0" encoding="utf-8"?>
<!-- Generator: Adobe Illustrator 23.0.3, SVG Export Plug-In . SVG Version: 6.00 Build 0)  -->
<svg version="1.1" id="Layer_2" xmlns="http://www.w3.org/2000/svg" xmlns:xlink="http://www.w3.org/1999/xlink" x="0px" y="0px"
	 viewBox="0 0 262 262" style="enable-background:new 0 0 262 262;" xml:space="preserve">
<style type="text/css">
	.st0{fill:#FFC000;}
	.st1{fill:#231804;}
</style>
<g>
	<rect class="st0" width="262" height="262"/>
	<g>
		<path class="st1" d="M88.1,91.7h-0.2c-6.2,0-11.2,5-11.2,11.2v8.7c0,6.2,5,11.2,11.2,11.2h0.2c6.2,0,11.2-5,11.2-11.2v-8.7
			C99.3,96.7,94.3,91.7,88.1,91.7z"/>
	</g>
	<g>
		<path class="st1" d="M188.7,121.1c-2.8,0-5.1-2.3-5.1-5.1v-3c0-5.2-4.2-9.4-9.4-9.4c-5.5,0-9.7,4.2-9.7,9.4v3
			c0,2.8-2.3,5.1-5.1,5.1c-2.8,0-5.1-2.3-5.1-5.1v-3c0-10.9,8.8-19.7,19.7-19.7c11.2,0,20,8.8,20,19.7v3
			C193.9,118.8,191.6,121.1,188.7,121.1z"/>
	</g>
	<g>
		<path class="st1" d="M131,189.4c-24.3,0-36.9-17.5-40.2-26.7c-1-2.7,0.4-5.6,3.1-6.6c2.7-1,5.6,0.4,6.6,3.1
			c0.3,0.9,7.6,19.9,30.5,19.9c23.2,0,30.4-19.7,30.5-19.9c1-2.7,3.9-4.1,6.6-3.1c2.7,1,4.1,3.9,3.1,6.6
			C167.9,171.9,155.3,189.4,131,189.4z"/>
	</g>
</g>
</svg>
