<?xml version="1.0" encoding="utf-8"?>
<!-- Generator: Adobe Illustrator 23.0.3, SVG Export Plug-In . SVG Version: 6.00 Build 0)  -->
<svg version="1.1" id="Layer_2" xmlns="http://www.w3.org/2000/svg" xmlns:xlink="http://www.w3.org/1999/xlink" x="0px" y="0px"
	 viewBox="0 0 262 262" style="enable-background:new 0 0 262 262;" xml:space="preserve">
<style type="text/css">
	.st0{fill:#FFC000;}
	.st1{fill:#231804;}
	.st2{fill:#F0551F;}
</style>
<g>
	<rect class="st0" width="262" height="262"/>
	<g>
		<path class="st1" d="M134.3,190.6h-6.5c-11,0-19.9-8.9-19.9-19.9v-6.5c0-11,8.9-19.9,19.9-19.9h6.5c11,0,19.9,8.9,19.9,19.9v6.5
			C154.1,181.7,145.2,190.6,134.3,190.6z"/>
	</g>
	<g>
		<path class="st2" d="M131,166.7c-9.6,0-17.8,3.2-21.8,11.2c2.8,7.5,10.1,12.8,18.6,12.8h6.5c8.5,0,15.7-5.3,18.6-12.8
			C148.8,169.8,140.6,166.7,131,166.7z"/>
	</g>
	<g>
		<g>
			<path class="st2" d="M208.3,104.5c1.9-10-4.6-19.7-14.7-21.6c-4.4-0.8-8.7,0-12.4,2c0-0.1-0.1-0.2-0.1-0.2
				c-4.4-9.2-15.5-13-24.7-8.6c-9.2,4.4-13,15.5-8.6,24.7l16.8,34.8l34.1-18.2C203.6,114.7,207.3,110.1,208.3,104.5z"/>
		</g>
		<g>
			<path class="st2" d="M53.4,104.5c-1.9-10,4.6-19.7,14.7-21.6c4.4-0.8,8.7,0,12.4,2c0-0.1,0.1-0.2,0.1-0.2
				c4.4-9.2,15.5-13,24.7-8.6c9.2,4.4,13,15.5,8.6,24.7L97,135.5l-34.1-18.2C58.2,114.7,54.5,110.1,53.4,104.5z"/>
		</g>
	</g>
</g>
</svg>
