<?xml version="1.0" encoding="utf-8"?>
<!-- Generator: Adobe Illustrator 23.0.3, SVG Export Plug-In . SVG Version: 6.00 Build 0)  -->
<svg version="1.1" id="Layer_2" xmlns="http://www.w3.org/2000/svg" xmlns:xlink="http://www.w3.org/1999/xlink" x="0px" y="0px"
	 viewBox="0 0 262 262" style="enable-background:new 0 0 262 262;" xml:space="preserve">
<style type="text/css">
	.st0{fill:#A4DED2;}
	.st1{fill:#231804;}
	.st2{fill:#21BEE9;}
</style>
<g>
	<rect class="st0" width="262" height="262"/>
	<g>
		<g>
			<path class="st1" d="M78.6,128.4c-1.8,0-3.5-0.9-4.5-2.6c-1.4-2.5-0.6-5.6,1.9-7l18-10.4L76,98.1c-2.5-1.4-3.3-4.6-1.9-7
				c1.4-2.5,4.6-3.3,7-1.9l25.7,14.8c1.6,0.9,2.6,2.6,2.6,4.5s-1,3.5-2.6,4.5l-25.7,14.8C80.3,128.2,79.5,128.4,78.6,128.4z"/>
		</g>
		<g>
			<path class="st1" d="M183.4,128.4c-0.9,0-1.8-0.2-2.6-0.7l-25.7-14.8c-1.6-0.9-2.6-2.6-2.6-4.5s1-3.5,2.6-4.5l25.7-14.8
				c2.5-1.4,5.6-0.6,7,1.9c1.4,2.5,0.6,5.6-1.9,7l-18,10.4l18,10.4c2.5,1.4,3.3,4.6,1.9,7C186.9,127.5,185.2,128.4,183.4,128.4z"/>
		</g>
	</g>
	<g>
		<g>
			<path class="st1" d="M101.3,181.1c-1.2,0-2.4-0.4-3.4-1.3l-11.5-9.9L75,179.9c-2.1,1.9-5.4,1.6-7.2-0.5c-1.9-2.1-1.6-5.4,0.5-7.3
				l14.8-12.8c1.9-1.7,4.8-1.7,6.7,0l14.8,12.8c2.1,1.9,2.4,5.1,0.5,7.3C104.2,180.5,102.8,181.1,101.3,181.1z"/>
		</g>
		<g>
			<path class="st1" d="M131,181.1c-1.2,0-2.4-0.4-3.4-1.3l-11.5-9.9l-11.5,9.9c-2.1,1.9-5.4,1.6-7.2-0.5c-1.9-2.1-1.6-5.4,0.5-7.3
				l14.8-12.8c1.9-1.7,4.8-1.7,6.7,0l14.8,12.8c2.1,1.9,2.4,5.1,0.5,7.3C133.9,180.5,132.4,181.1,131,181.1z"/>
		</g>
		<g>
			<path class="st1" d="M160.7,181.1c-1.2,0-2.4-0.4-3.4-1.3l-11.5-9.9l-11.5,9.9c-2.1,1.9-5.4,1.6-7.2-0.5
				c-1.9-2.1-1.6-5.4,0.5-7.3l14.8-12.8c1.9-1.7,4.8-1.7,6.7,0l14.8,12.8c2.1,1.9,2.4,5.1,0.5,7.3
				C163.5,180.5,162.1,181.1,160.7,181.1z"/>
		</g>
		<g>
			<path class="st1" d="M190.3,181.1c-1.2,0-2.4-0.4-3.4-1.3l-11.5-9.9l-11.5,9.9c-2.1,1.9-5.4,1.6-7.2-0.5
				c-1.9-2.1-1.6-5.4,0.5-7.2l14.8-12.8c1.9-1.7,4.8-1.7,6.7,0l14.8,12.8c2.1,1.9,2.4,5.1,0.5,7.3
				C193.2,180.5,191.8,181.1,190.3,181.1z"/>
		</g>
	</g>
	<g>
		<path class="st2" d="M200.6,135l10.4-26.5l10.4,26.5c2.3,5.8-0.6,12.3-6.3,14.5c-5.8,2.3-12.3-0.6-14.5-6.3
			C199.5,140.4,199.6,137.5,200.6,135z"/>
	</g>
</g>
</svg>
